<svg width="116" height="105" viewBox="0 0 116 105" fill="none" xmlns="http://www.w3.org/2000/svg">
<g id="beer-svgrepo-com 1" clip-path="url(#clip0_29_163)">
<path id="Vector" d="M93.1017 40.6859L80.9847 40.6297L80.993 38.8321C84.9518 36.1979 87.5354 31.9552 87.5576 27.1667C87.5905 20.0725 81.9928 14.1217 74.5836 12.8125C72.4617 5.58079 65.2246 0.300423 56.6457 0.260429C51.8977 0.238624 47.3332 1.88356 43.8939 4.76669C42.672 4.47071 41.4078 4.31545 40.1364 4.30955C34.0917 4.28152 28.8032 7.58517 26.4837 12.3603C26.1704 12.3421 25.8555 12.3323 25.5398 12.3309C16.7004 12.2899 9.47859 18.7827 9.44139 26.8042C9.42091 31.221 11.5855 35.1914 15.0081 37.8776L14.7291 98.0448C14.7129 101.546 17.8565 104.426 21.715 104.444L73.6721 104.685C77.5306 104.703 80.7008 101.852 80.7171 98.3508L80.7604 89.0135L92.8774 89.0697C100.098 89.1032 105.998 83.7993 106.028 77.2467L106.142 52.6302C106.172 46.0776 100.322 40.7194 93.1017 40.6859ZM71.4966 33.576L30.448 33.3857L30.3879 46.3414C30.3776 48.5681 28.3799 50.3641 25.9261 50.3528C23.4724 50.3414 21.4914 48.5269 21.5017 46.3001L21.5666 32.3004C19.6093 31.1343 18.317 29.1229 18.3276 26.8454C18.3442 23.2703 21.5628 20.3766 25.5024 20.3949C26.3891 20.399 27.2563 20.5503 28.0802 20.8444C29.396 21.3142 30.8792 21.1883 32.0748 20.5045C33.2703 19.8208 34.0355 18.6614 34.1357 17.382C34.3567 14.5591 36.976 12.3591 40.099 12.3736C41.1176 12.3783 42.0821 12.6077 42.9652 13.0551C44.9191 14.045 47.378 13.563 48.7052 11.93C50.5792 9.6241 53.4598 8.30984 56.6083 8.32444C61.8177 8.3486 66.0821 12.0626 66.3165 16.7798C66.3702 17.8623 66.902 18.8802 67.7919 19.6036C68.6816 20.3271 69.8546 20.6963 71.0462 20.6254C71.2529 20.6132 71.4152 20.608 71.5567 20.6087C75.4964 20.6269 78.688 23.5504 78.6714 27.1255C78.6548 30.7006 75.4362 33.5943 71.4966 33.576ZM93.8679 77.1905C93.8658 77.6427 93.4269 78.0373 92.9285 78.035L80.8115 77.9788L80.9335 51.6647L93.0506 51.7208C93.5489 51.7232 93.9841 52.1218 93.982 52.574L93.8679 77.1905Z" fill="black"/>
</g>
<defs>
<clipPath id="clip0_29_163">
<rect width="114.983" height="104.344" fill="white" transform="translate(0.483826) rotate(0.265683)"/>
</clipPath>
</defs>
</svg>
